<?xml version="1.0" encoding="UTF-8" standalone="no"?>
<svg
   version="1.0"
   width="1209.915pt"
   height="83pt"
   viewBox="0 0 1209.915 83"
   preserveAspectRatio="xMidYMid"
   id="svg40"
   sodipodi:docname="divider2.svg"
   inkscape:version="1.2 (dc2aedaf03, 2022-05-15)"
   xmlns:inkscape="http://www.inkscape.org/namespaces/inkscape"
   xmlns:sodipodi="http://sodipodi.sourceforge.net/DTD/sodipodi-0.dtd"
   xmlns="http://www.w3.org/2000/svg"
   xmlns:svg="http://www.w3.org/2000/svg">
  <defs
     id="defs44" />
  <sodipodi:namedview
     id="namedview42"
     pagecolor="#ffffff"
     bordercolor="#666666"
     borderopacity="1.0"
     inkscape:showpageshadow="2"
     inkscape:pageopacity="0.0"
     inkscape:pagecheckerboard="0"
     inkscape:deskcolor="#d1d1d1"
     inkscape:document-units="pt"
     showgrid="false"
     inkscape:zoom="0.2304795"
     inkscape:cx="772.30295"
     inkscape:cy="-108.46952"
     inkscape:window-width="1348"
     inkscape:window-height="728"
     inkscape:window-x="6"
     inkscape:window-y="28"
     inkscape:window-maximized="1"
     inkscape:current-layer="g38" />
  <metadata
     id="metadata2">
Created by potrace 1.15, written by Peter Selinger 2001-2017
</metadata>
  <g
     transform="matrix(0.1,0,0,-0.1,-32.5,433)"
     fill="#000000"
     stroke="none"
     id="g38">
    <path
       d="m 11434,4240 -90,-91 -81,76 -81,75 H 6372 1562 l -88,-84 -89,-84 -92,91 -93,92 -84,-84 -84,-84 -49,43 c -122,107 -269,135 -419,79 -44,-17 -76,-39 -125,-88 -87,-88 -113,-150 -114,-277 0,-84 2,-95 38,-166 43,-87 98,-142 186,-185 50,-25 67,-28 161,-28 93,0 112,3 162,27 32,15 80,48 108,74 l 51,48 87,-87 87,-87 91,91 92,91 85,-81 84,-81 h 4819 4819 l 80,80 c 44,44 84,80 90,80 5,0 45,-35 87,-77 l 78,-78 85,85 85,84 52,-54 c 33,-33 78,-65 118,-84 59,-28 74,-31 165,-31 91,0 106,3 165,31 159,76 247,240 219,413 -20,130 -101,235 -227,294 -60,28 -77,32 -157,32 -80,0 -97,-4 -157,-32 -37,-17 -87,-50 -113,-74 l -46,-43 -92,92 c -51,51 -95,92 -97,92 -3,0 -46,-41 -96,-90 z M 845,4184 c 28,-13 67,-40 89,-60 l 38,-36 -88,-89 -89,-89 90,-91 90,-91 -50,-44 c -162,-144 -408,-94 -497,101 -28,61 -30,179 -5,235 75,169 263,242 422,164 z m 10375,-29 65,-66 -84,-82 -83,-82 91,-87 c 50,-48 91,-91 91,-96 0,-5 -33,-39 -74,-75 l -74,-67 H 6371 1590 l -73,69 -72,70 83,83 82,83 -80,80 c -44,44 -80,82 -80,86 0,4 33,39 73,78 l 72,71 h 4780 4781 z m 379,1 63,-63 -64,-56 c -35,-32 -67,-57 -71,-57 -5,0 -35,26 -68,57 l -60,57 63,63 c 34,35 65,63 68,63 3,0 34,-29 69,-64 z m 567,30 c 64,-29 120,-86 151,-154 22,-46 25,-64 21,-135 -5,-127 -57,-209 -170,-269 -36,-19 -59,-23 -133,-23 -80,0 -96,3 -141,28 -29,16 -71,49 -95,73 l -43,44 89,90 90,90 -80,81 -80,80 40,35 c 108,94 231,115 351,60 z M 1320,4077 c 0,-12 -92,-96 -105,-97 -6,0 -35,25 -65,55 l -54,55 54,55 54,55 58,-57 c 32,-32 58,-61 58,-66 z m -231,-219 -62,-69 -59,58 -58,57 62,63 61,62 59,-51 58,-50 z m 10328,110 61,-63 -57,-52 -58,-52 -63,64 -64,65 49,50 c 27,27 54,50 60,50 6,0 38,-28 72,-62 z m 358,12 49,-50 -59,-61 -60,-60 -53,58 -53,58 54,52 c 31,29 59,53 64,53 5,0 31,-23 58,-50 z m -10336,-126 -56,-56 -57,53 -57,52 58,59 58,58 55,-55 55,-55 z m -176,-176 -63,-63 -55,55 c -30,30 -55,59 -55,64 0,6 26,36 57,68 l 58,58 60,-60 60,-60 z m 10377,73 c 0,-3 -25,-31 -55,-61 l -55,-55 -52,53 -53,52 60,61 60,60 48,-51 c 26,-28 47,-55 47,-59 z"
       id="path4" />
    <path
       style="fill:#ffdd55;fill-rule:evenodd;stroke:none;stroke-width:14.8246;stroke-linecap:round;stroke-linejoin:round"
       d="m 204.55466,225.66086 -7.66199,-8.15582 10.35347,-10.68207 10.35347,-10.68207 -11.37476,-11.02486 -11.37477,-11.02485 8.72478,-9.10671 8.72477,-9.1067 h 636.95103 636.95104 l 7.3921,7.86855 7.3921,7.86854 -10.8853,9.77744 -10.8854,9.77744 12.9272,13.29723 12.9273,13.29723 -9.6798,7.90944 -9.6798,7.90944 -636.74674,0.11679 -636.74671,0.11679 z"
       id="path465"
       transform="matrix(7.5,0,0,-7.5,0,5370)" />
    <path
       style="fill:#ffdd55;fill-rule:evenodd;stroke:none;stroke-width:6.18184;stroke-linecap:round;stroke-linejoin:round"
       d="m 86.308045,234.21855 c -18.897044,-4.69063 -31.046397,-20.19983 -31.150808,-39.76541 -0.06222,-11.66002 3.893119,-20.58215 12.619435,-28.46585 16.37593,-14.79467 38.687198,-14.55711 55.945278,0.59568 l 5.10747,4.48442 -11.91194,11.96738 -11.91194,11.96739 11.94207,11.99765 11.94206,11.99765 -5.98435,4.90373 c -11.10631,9.10078 -25.336522,13.11251 -36.597275,10.31736 z"
       id="path536"
       transform="matrix(7.5,0,0,-7.5,0,5370)" />
    <path
       style="fill:#ffdd55;fill-rule:evenodd;stroke:none;stroke-width:6.18184;stroke-linecap:round;stroke-linejoin:round"
       d="m 1587.6626,231.59737 c -3.0426,-1.54157 -8.7186,-5.68343 -12.6133,-9.20413 l -7.0813,-6.40127 12.274,-12.15854 12.2739,-12.15854 -10.4259,-10.48743 -10.426,-10.48742 3.0966,-3.29614 c 1.7031,-1.81287 6.8522,-5.30463 11.4424,-7.75947 19.9084,-10.64695 43.9565,-2.5737 54.6584,18.34947 3.0615,5.98549 3.363,7.91979 2.8633,18.36992 -0.7257,15.18007 -5.1619,23.68961 -16.5501,31.74654 -7.6174,5.38919 -7.9855,5.49306 -20.867,5.88792 -11.0918,0.34 -13.9656,-0.03 -18.645,-2.40091 z"
       id="path538"
       transform="matrix(7.5,0,0,-7.5,0,5370)" />
    <path
       style="fill:#ffdd55;fill-rule:evenodd;stroke:none;stroke-width:6.18184;stroke-linecap:round;stroke-linejoin:round"
       d="m 1528.386,177.0568 -7.933,-7.107 8.3746,-7.98073 8.3747,-7.98073 8.1188,7.98073 8.1189,7.98073 -7.7641,7.10945 c -4.2702,3.9102 -8.1224,7.10835 -8.5604,7.10701 -0.4381,-0.001 -4.3663,-3.2006 -8.7295,-7.10946 z"
       id="path540"
       transform="matrix(7.5,0,0,-7.5,0,5370)" />
    <path
       style="fill:#ffdd55;fill-rule:evenodd;stroke:none;stroke-width:6.18184;stroke-linecap:round;stroke-linejoin:round"
       d="m 1531.241,223.79418 -6.4322,-6.5408 7.4748,-7.38197 7.4748,-7.38198 5.3321,6.07418 c 2.9326,3.3408 5.358,6.57652 5.3897,7.19049 0.032,0.61398 -2.8368,4.14584 -6.3746,7.8486 l -6.4324,6.73228 z"
       id="path542"
       transform="matrix(7.5,0,0,-7.5,0,5370)" />
    <path
       style="fill:#ffdd55;fill-rule:evenodd;stroke:none;stroke-width:6.18184;stroke-linecap:round;stroke-linejoin:round"
       d="m 153.93748,177.44915 -7.00877,-6.71955 6.80219,-6.83743 6.80219,-6.83743 7.36527,7.45792 7.36528,7.45791 -5.98578,6.09907 c -3.29218,3.35448 -6.51359,6.09906 -7.15869,6.09906 -0.6451,0 -4.32686,-3.0238 -8.18169,-6.71955 z"
       id="path544"
       transform="matrix(7.5,0,0,-7.5,0,5370)" />
    <path
       style="fill:#ffdd55;fill-rule:evenodd;stroke:none;stroke-width:6.18184;stroke-linecap:round;stroke-linejoin:round"
       d="m 153.01031,225.45887 -7.37461,-7.46736 7.75596,-7.75596 7.75595,-7.75596 7.46191,7.46191 7.46191,7.46191 -7.84326,7.76141 -7.84325,7.76142 z"
       id="path546"
       transform="matrix(7.5,0,0,-7.5,0,5370)" />
  </g>
</svg>
